<svg width="106" height="106" viewBox="0 0 106 106" fill="none" xmlns="http://www.w3.org/2000/svg">
<path d="M90 55.8003C88.5685 74.9844 72.5498 90.1043 52.9997 90.1043C33.4496 90.1043 17.431 74.9844 15.9995 55.8003H38.5644C39.872 62.5805 45.8378 67.7017 52.9997 67.7017C60.1617 67.7017 66.1275 62.5805 67.4351 55.8003H90Z" fill="black" fill-opacity="0.2"/>
<path d="M90 50.1997H67.4351C66.1275 43.4195 60.1617 38.2983 52.9997 38.2983C45.8378 38.2983 39.872 43.4195 38.5644 50.1997H15.9995C17.431 31.0156 33.4496 15.8957 52.9997 15.8957C72.5498 15.8957 88.5685 31.0156 90 50.1997Z" fill="black" fill-opacity="0.2"/>
<circle cx="53.0001" cy="53" r="8.40098" fill="black" fill-opacity="0.2"/>
</svg>
